<?xml version="1.0" encoding="utf-8"?>
<!-- Generator: Adobe Illustrator 19.0.0, SVG Export Plug-In . SVG Version: 6.00 Build 0)  -->
<svg version="1.1" id="Layer_1" xmlns="http://www.w3.org/2000/svg" xmlns:xlink="http://www.w3.org/1999/xlink" x="0px" y="0px"
	 viewBox="-293 385 24 24" style="enable-background:new -293 385 24 24;" xml:space="preserve">
<style type="text/css">
	.st0{fill:#2E79BF;}
</style>
<path class="st0" d="M-281,387c5.5,0,10,4.5,10,10s-4.5,10-10,10s-10-4.5-10-10S-286.5,387-281,387z M-281,385c-6.6,0-12,5.4-12,12
	s5.4,12,12,12s12-5.4,12-12S-274.4,385-281,385z M-281,392.1c1.6,0,1.8,0,2.4,0c1.6,0.1,2.4,0.8,2.5,2.5c0,0.6,0,0.8,0,2.4
	s0,1.8,0,2.4c-0.1,1.6-0.8,2.4-2.5,2.5c-0.6,0-0.8,0-2.4,0c-1.6,0-1.8,0-2.4,0c-1.6-0.1-2.4-0.8-2.5-2.5c0-0.6,0-0.8,0-2.4
	s0-1.8,0-2.4c0.1-1.6,0.8-2.4,2.5-2.5C-282.8,392.1-282.6,392.1-281,392.1z M-281,391c-1.6,0-1.8,0-2.5,0c-2.2,0.1-3.4,1.3-3.5,3.5
	c0,0.6,0,0.8,0,2.5c0,1.6,0,1.8,0,2.5c0.1,2.2,1.3,3.4,3.5,3.5c0.6,0,0.8,0,2.5,0s1.8,0,2.5,0c2.2-0.1,3.4-1.3,3.5-3.5
	c0-0.6,0-0.8,0-2.5c0-1.6,0-1.8,0-2.5c-0.1-2.2-1.3-3.4-3.5-3.5C-279.2,391-279.4,391-281,391z M-281,393.9c-1.7,0-3.1,1.4-3.1,3.1
	s1.4,3.1,3.1,3.1s3.1-1.4,3.1-3.1C-277.9,395.3-279.3,393.9-281,393.9z M-281,399c-1.1,0-2-0.9-2-2c0-1.1,0.9-2,2-2c1.1,0,2,0.9,2,2
	S-279.9,399-281,399z M-277.8,393.1c-0.4,0-0.7,0.3-0.7,0.7c0,0.4,0.3,0.7,0.7,0.7s0.7-0.3,0.7-0.7S-277.4,393.1-277.8,393.1z"/>
</svg>
