<?xml version="1.0" encoding="utf-8"?>
<!-- Generator: Adobe Illustrator 21.1.0, SVG Export Plug-In . SVG Version: 6.00 Build 0)  -->
<svg version="1.1" id="Layer_1" xmlns="http://www.w3.org/2000/svg" xmlns:xlink="http://www.w3.org/1999/xlink" x="0px" y="0px"
	 viewBox="0 0 332 57" style="enable-background:new 0 0 332 57;" xml:space="preserve">
<style type="text/css">
	.st0{fill:url(#SVGID_1_);}
	.st1{fill:url(#SVGID_2_);}
	.st2{fill:url(#SVGID_3_);}
	.st3{fill:url(#SVGID_4_);}
	.st4{fill:url(#SVGID_5_);}
	.st5{fill:url(#SVGID_6_);}
	.st6{fill:#373535;}
</style>
<g>
	<linearGradient id="SVGID_1_" gradientUnits="userSpaceOnUse" x1="3.1939" y1="26.9473" x2="55.6674" y2="26.9473">
		<stop  offset="0" style="stop-color:#46B5C2"/>
		<stop  offset="1" style="stop-color:#2E79BF"/>
	</linearGradient>
	<path class="st0" d="M30.1,37.2h0.5l0.7,0c0.6,0,1.1-0.1,1.7-0.2l1.9,1.4l4.5,3.3l15.7,11.4L44.1,38l-2.7-3.7l-1.2-1.6
		c0.4-0.5,0.7-1,1-1.5c0.2-0.3,0.3-0.6,0.4-0.8c1.4-3,1.4-6.5,0-9.5c-0.1-0.1-0.1-0.3-0.2-0.4l1.4-1.9c0.3,0.4,0.5,0.9,0.7,1.4
		c1.6,3.5,1.6,7.6,0,11.1c-0.3,0.7-0.7,1.3-1.1,1.9l2.8,3.8c0.8-1.1,1.5-2.3,2.1-3.5c2.2-4.8,2.2-10.3,0-15.1
		c-0.5-1.1-1.1-2.2-1.8-3.2l10.2-14L41.7,11c-1.2-0.9-2.5-1.7-3.8-2.3c-4.7-2.1-10.1-2.1-14.8,0c-1.3,0.5-2.5,1.2-3.6,2.1l4.3,3.2
		c0.6-0.4,1.3-0.7,1.9-1c3.5-1.5,7.4-1.5,10.9,0c0.5,0.2,1,0.5,1.4,0.7l-1.9,1.4c-0.2-0.1-0.3-0.1-0.5-0.2c-3-1.3-6.4-1.3-9.4,0
		c-0.3,0.1-0.5,0.2-0.8,0.4c0,0-0.1,0-0.1,0.1c-0.5,0.3-1,0.6-1.5,1c0,0,0,0-0.1,0.1l-1.1-0.8l-0.5-0.4l-3.8-2.8L18,12.1L3.2,1.2
		l11.2,15.4l0.4,0.5l3.3,4.6l0.4,0.5l1,1.3l0,0c-0.1,0.6-0.2,1.1-0.2,1.7l0,0.6l0,0.7l0,3.8l0,6.8l0,1.7l0,2.8l0,1l0,1.3L30,44H31
		c2.2-0.1,4.5-0.5,6.5-1.4l-5.1-3.7c-0.3,0-0.6,0-0.9,0.1h-0.8l-7.6,0l-0.6,0v-1.7l2.1,0L30.1,37.2z M22.5,34v-3.7l0-4l0-0.4
		c0-1.3,0.4-2.6,1-3.7c0.3-0.6,0.8-1.2,1.3-1.7c0.1-0.1,0.2-0.2,0.3-0.2c0.6-0.6,1.4-1.1,2.1-1.4c0.7-0.3,1.5-0.5,2.3-0.6
		c1.4-0.2,2.8,0.1,4.1,0.6c0.9,0.4,1.7,0.9,2.4,1.6c0.7,0.7,1.2,1.5,1.6,2.3c0.6,1.4,0.8,2.9,0.6,4.4c-0.1,0.7-0.3,1.5-0.6,2.1
		c-0.4,0.8-0.8,1.5-1.5,2.2c0,0.1-0.1,0.1-0.1,0.2c-0.5,0.5-1.1,0.9-1.7,1.3c-1.1,0.7-2.4,1-3.7,1H22.5z"/>
	<linearGradient id="SVGID_2_" gradientUnits="userSpaceOnUse" x1="0" y1="37.7327" x2="17.689" y2="37.7327">
		<stop  offset="0" style="stop-color:#46B5C2"/>
		<stop  offset="1" style="stop-color:#2E79BF"/>
	</linearGradient>
	<path class="st1" d="M17.6,44L0,57l12.1-16.6V26l0-0.9c0-2.2,0.5-4.5,1.4-6.6c0,0,0-0.1,0-0.1l0.4,0.5l3.8,5.2c0,0,0,0.1,0,0.1
		c0,0.2,0,0.5,0,0.7v0.6l0,7l0,0.7l0,4.8l0,4.8V44L17.6,44z"/>
	<linearGradient id="SVGID_3_" gradientUnits="userSpaceOnUse" x1="28.2192" y1="2.7558" x2="29.8868" y2="2.7558">
		<stop  offset="0" style="stop-color:#46B5C2"/>
		<stop  offset="1" style="stop-color:#2E79BF"/>
	</linearGradient>
	<path class="st2" d="M29.9,5.3c-0.6,0-1.1,0.1-1.7,0.2L28.7,0L29.9,5.3z"/>
	<linearGradient id="SVGID_4_" gradientUnits="userSpaceOnUse" x1="50.6202" y1="27.6225" x2="56.4757" y2="27.6225">
		<stop  offset="0" style="stop-color:#46B5C2"/>
		<stop  offset="1" style="stop-color:#2E79BF"/>
	</linearGradient>
	<path class="st3" d="M56.5,28l-5.9,0.5c0.1-0.6,0.2-1.2,0.2-1.8L56.5,28z"/>
	<linearGradient id="SVGID_5_" gradientUnits="userSpaceOnUse" x1="26.6317" y1="50.6341" x2="29.5995" y2="50.6341">
		<stop  offset="0" style="stop-color:#46B5C2"/>
		<stop  offset="1" style="stop-color:#2E79BF"/>
	</linearGradient>
	<polygon class="st4" points="28.1,55.5 26.6,45.8 29.6,45.8 	"/>
	<linearGradient id="SVGID_6_" gradientUnits="userSpaceOnUse" x1="0.6563" y1="28.3032" x2="10.2947" y2="28.3032">
		<stop  offset="0" style="stop-color:#46B5C2"/>
		<stop  offset="1" style="stop-color:#2E79BF"/>
	</linearGradient>
	<polygon class="st5" points="0.7,28.3 10.3,29.8 10.3,26.8 	"/>
</g>
<g>
	<path class="st6" d="M67.4,37.4c-1.6-0.8-2.9-2-3.8-3.5c-0.9-1.5-1.4-3.2-1.4-5.1c0-1.9,0.5-3.6,1.4-5.1c0.9-1.5,2.2-2.7,3.8-3.5
		c1.6-0.8,3.4-1.3,5.4-1.3s3.8,0.4,5.4,1.3c1.6,0.8,2.9,2,3.8,3.5c0.9,1.5,1.4,3.2,1.4,5.1c0,1.9-0.5,3.6-1.4,5.1
		c-0.9,1.5-2.2,2.7-3.8,3.5c-1.6,0.8-3.4,1.3-5.4,1.3S69,38.2,67.4,37.4z M75.4,33.5c0.8-0.5,1.4-1.1,1.8-1.9
		c0.5-0.8,0.7-1.8,0.7-2.8c0-1.1-0.2-2-0.7-2.8c-0.5-0.8-1.1-1.5-1.8-1.9c-0.8-0.5-1.6-0.7-2.6-0.7c-1,0-1.8,0.2-2.6,0.7
		c-0.8,0.5-1.4,1.1-1.8,1.9c-0.5,0.8-0.7,1.8-0.7,2.8c0,1.1,0.2,2,0.7,2.8c0.5,0.8,1.1,1.5,1.8,1.9c0.8,0.5,1.6,0.7,2.6,0.7
		C73.7,34.2,74.6,34,75.4,33.5z"/>
	<path class="st6" d="M104.2,19.3v19h-4.4l-8.4-10.1v10.1h-5.3v-19h4.4l8.4,10.1V19.3H104.2z"/>
	<path class="st6" d="M112,23.6h-5.8v-4.3h17v4.3h-5.8v14.7H112V23.6z"/>
	<path class="st6" d="M137,34.6h-8l-1.5,3.7H122l8.4-19h5.3l8.4,19h-5.6L137,34.6z M135.4,30.6l-2.4-6.1l-2.4,6.1H135.4z"/>
	<path class="st6" d="M153.9,33.2H151v5h-5.4v-19h8.7c1.7,0,3.2,0.3,4.5,0.9c1.3,0.6,2.2,1.4,2.9,2.4c0.7,1.1,1,2.3,1,3.7
		c0,1.4-0.3,2.6-1,3.6c-0.6,1-1.6,1.8-2.8,2.4l4.1,6h-5.7L153.9,33.2z M156.4,24.3c-0.6-0.5-1.4-0.7-2.5-0.7h-3v5.6h3
		c1.1,0,1.9-0.2,2.5-0.7c0.6-0.5,0.8-1.2,0.8-2C157.3,25.4,157,24.7,156.4,24.3z"/>
	<path class="st6" d="M165.7,19.3h5.4v19h-5.4V19.3z"/>
	<path class="st6" d="M179,37.4c-1.6-0.8-2.9-2-3.8-3.5c-0.9-1.5-1.4-3.2-1.4-5.1c0-1.9,0.5-3.6,1.4-5.1c0.9-1.5,2.2-2.7,3.8-3.5
		c1.6-0.8,3.4-1.3,5.4-1.3s3.8,0.4,5.4,1.3c1.6,0.8,2.9,2,3.8,3.5c0.9,1.5,1.4,3.2,1.4,5.1c0,1.9-0.5,3.6-1.4,5.1
		c-0.9,1.5-2.2,2.7-3.8,3.5c-1.6,0.8-3.4,1.3-5.4,1.3S180.6,38.2,179,37.4z M187,33.5c0.8-0.5,1.4-1.1,1.8-1.9
		c0.5-0.8,0.7-1.8,0.7-2.8c0-1.1-0.2-2-0.7-2.8c-0.5-0.8-1.1-1.5-1.8-1.9c-0.8-0.5-1.6-0.7-2.6-0.7c-1,0-1.8,0.2-2.6,0.7
		c-0.8,0.5-1.4,1.1-1.8,1.9c-0.5,0.8-0.7,1.8-0.7,2.8c0,1.1,0.2,2,0.7,2.8c0.5,0.8,1.1,1.5,1.8,1.9c0.8,0.5,1.6,0.7,2.6,0.7
		C185.4,34.2,186.2,34,187,33.5z"/>
	<path class="st6" d="M207.9,38.1c-1.4-0.4-2.6-0.9-3.5-1.5l1.8-4c0.8,0.6,1.8,1,3,1.4c1.1,0.3,2.2,0.5,3.3,0.5
		c2.1,0,3.1-0.5,3.1-1.5c0-0.5-0.3-0.9-0.9-1.2c-0.6-0.3-1.5-0.5-2.8-0.8c-1.4-0.3-2.6-0.6-3.6-1c-1-0.4-1.8-0.9-2.5-1.7
		c-0.7-0.8-1-1.8-1-3.1c0-1.2,0.3-2.2,0.9-3.1c0.6-0.9,1.6-1.7,2.8-2.2c1.3-0.5,2.8-0.8,4.6-0.8c1.2,0,2.5,0.1,3.7,0.4
		c1.2,0.3,2.3,0.7,3.2,1.2l-1.7,4c-1.8-1-3.6-1.5-5.3-1.5c-1.1,0-1.8,0.2-2.3,0.5c-0.5,0.3-0.7,0.7-0.7,1.2c0,0.5,0.3,0.9,0.9,1.1
		c0.6,0.3,1.5,0.5,2.8,0.8c1.4,0.3,2.6,0.6,3.6,1c0.9,0.4,1.8,0.9,2.5,1.7c0.7,0.8,1,1.8,1,3.1c0,1.1-0.3,2.2-0.9,3.1
		c-0.6,0.9-1.6,1.7-2.8,2.2c-1.3,0.6-2.8,0.8-4.6,0.8C210.8,38.7,209.3,38.5,207.9,38.1z"/>
	<path class="st6" d="M225.4,36.4c-1.6-1.5-2.3-3.7-2.3-6.5V19.3h5.4v10.4c0,3,1.2,4.6,3.6,4.6c2.4,0,3.6-1.5,3.6-4.6V19.3h5.3v10.5
		c0,2.8-0.8,5-2.3,6.5s-3.8,2.3-6.6,2.3C229.2,38.7,227,37.9,225.4,36.4z"/>
	<path class="st6" d="M261.7,38.3l-0.1-10.1l-4.9,8.2h-2.4l-4.9-7.9v9.8h-5v-19h4.4l6.7,11l6.5-11h4.4l0.1,19H261.7z"/>
	<path class="st6" d="M287.5,38.3l-0.1-10.1l-4.9,8.2h-2.4l-4.9-7.9v9.8h-5v-19h4.4l6.7,11l6.5-11h4.4l0.1,19H287.5z"/>
	<path class="st6" d="M311.5,34.1v4.1h-15.2v-19h14.9v4.1h-9.6v3.2h8.4v4h-8.4v3.5H311.5z"/>
	<path class="st6" d="M322.8,33.2h-2.9v5h-5.4v-19h8.7c1.7,0,3.2,0.3,4.5,0.9c1.3,0.6,2.2,1.4,2.9,2.4c0.7,1.1,1,2.3,1,3.7
		c0,1.4-0.3,2.6-1,3.6c-0.6,1-1.6,1.8-2.8,2.4l4.1,6h-5.7L322.8,33.2z M325.3,24.3c-0.6-0.5-1.4-0.7-2.5-0.7h-3v5.6h3
		c1.1,0,1.9-0.2,2.5-0.7c0.6-0.5,0.8-1.2,0.8-2C326.2,25.4,325.9,24.7,325.3,24.3z"/>
</g>
</svg>
