<?xml version="1.0" encoding="utf-8"?>
<!-- Generator: Adobe Illustrator 22.0.1, SVG Export Plug-In . SVG Version: 6.00 Build 0)  -->
<svg version="1.1" id="Layer_1" xmlns="http://www.w3.org/2000/svg" xmlns:xlink="http://www.w3.org/1999/xlink" x="0px" y="0px"
	 viewBox="0 0 758.7 154.4" style="enable-background:new 0 0 758.7 154.4;" xml:space="preserve">
<g>
	<path d="M29.4,106.4C20.2,101.5,13,94.8,7.8,86.2C2.6,77.7,0,68,0,57.2c0-10.7,2.6-20.4,7.8-29C13,19.7,20.2,13,29.4,8.1
		c9.1-4.9,19.5-7.3,30.9-7.3c11.5,0,21.8,2.4,30.9,7.3s16.3,11.6,21.5,20.1c5.2,8.6,7.8,18.2,7.8,29c0,10.7-2.6,20.4-7.8,29
		c-5.2,8.6-12.4,15.3-21.5,20.1c-9.1,4.9-19.5,7.3-30.9,7.3C48.8,113.7,38.5,111.2,29.4,106.4z M75.2,84.4c4.4-2.6,8-6.2,10.5-10.9
		c2.6-4.7,3.9-10.1,3.9-16.2s-1.3-11.5-3.9-16.2s-6.1-8.3-10.5-10.9s-9.4-3.9-14.9-3.9s-10.4,1.3-14.9,3.9c-4.4,2.6-8,6.2-10.5,10.9
		C32.3,45.8,31,51.2,31,57.2c0,6.1,1.3,11.5,3.9,16.2c2.6,4.7,6.1,8.3,10.5,10.9s9.4,3.9,14.9,3.9C65.8,88.2,70.7,87,75.2,84.4z"/>
	<path d="M239.9,3v108.5h-25.3l-47.9-57.8v57.8h-30.1V3H162l47.9,57.8V3H239.9z"/>
	<path d="M284.7,27.3h-33.3V3h97.2v24.3h-33.2v84.2h-30.7L284.7,27.3L284.7,27.3z"/>
	<path d="M427.3,90.4h-45.9l-8.5,21.1h-31.3L389.5,3h30.2l48.1,108.5h-31.9L427.3,90.4z M418.3,67.8l-13.9-34.7l-14,34.7H418.3z"/>
	<path d="M523.9,82.7h-16.7v28.8h-30.7V3h49.6c9.8,0,18.3,1.6,25.6,4.9c7.2,3.3,12.8,7.9,16.7,14c3.9,6,5.9,13.2,5.9,21.3
		c0,7.9-1.8,14.7-5.5,20.5s-8.9,10.4-15.7,13.7l23.4,34.1h-32.9L523.9,82.7z M538.5,31.4c-3.2-2.8-8-4.2-14.3-4.2h-17V59h17
		c6.3,0,11.1-1.4,14.3-4.1c3.2-2.7,4.8-6.6,4.8-11.7S541.7,34.2,538.5,31.4z"/>
	<path d="M591.2,3h30.7v108.5h-30.7V3z"/>
	<path d="M667.5,106.4c-9.1-4.9-16.3-11.6-21.5-20.1c-5.2-8.6-7.8-18.2-7.8-29c0-10.7,2.6-20.4,7.8-29S658.4,13,667.5,8.2
		c9.1-4.9,19.5-7.3,30.9-7.3c11.5,0,21.8,2.4,30.9,7.3c9.1,4.9,16.3,11.6,21.5,20.1c5.2,8.6,7.8,18.2,7.8,29c0,10.7-2.6,20.4-7.8,29
		s-12.4,15.3-21.5,20.1c-9.1,4.9-19.5,7.3-30.9,7.3C687,113.7,676.6,111.2,667.5,106.4z M713.3,84.4c4.4-2.6,8-6.2,10.5-10.9
		c2.6-4.7,3.9-10.1,3.9-16.2s-1.3-11.5-3.9-16.2c-2.6-4.7-6.1-8.3-10.5-10.9s-9.4-3.9-14.9-3.9s-10.4,1.3-14.9,3.9
		c-4.4,2.6-8,6.2-10.5,10.9c-2.6,4.7-3.9,10.1-3.9,16.2s1.3,11.5,3.9,16.2c2.6,4.7,6.1,8.3,10.5,10.9s9.4,3.9,14.9,3.9
		C703.9,88.2,708.9,87,713.3,84.4z"/>
</g>
</svg>
