<?xml version="1.0" encoding="utf-8"?>
<!-- Generator: Adobe Illustrator 21.1.0, SVG Export Plug-In . SVG Version: 6.00 Build 0)  -->
<svg version="1.1" id="Layer_1" xmlns="http://www.w3.org/2000/svg" xmlns:xlink="http://www.w3.org/1999/xlink" x="0px" y="0px"
	 viewBox="0 0 758.7 154.4" style="enable-background:new 0 0 758.7 154.4;" xml:space="preserve">
<g>
	<path d="M29.4,103.4C20.2,98.5,13,91.8,7.8,83.2C2.6,74.7,0,65,0,54.2c0-10.7,2.6-20.4,7.8-29C13,16.7,20.2,10,29.4,5.1
		c9.1-4.9,19.5-7.3,30.9-7.3c11.5,0,21.8,2.4,30.9,7.3c9.1,4.9,16.3,11.6,21.5,20.1c5.2,8.6,7.8,18.2,7.8,29c0,10.7-2.6,20.4-7.8,29
		c-5.2,8.6-12.4,15.3-21.5,20.1c-9.1,4.9-19.5,7.3-30.9,7.3C48.8,110.7,38.5,108.2,29.4,103.4z M75.2,81.4c4.4-2.6,8-6.2,10.5-10.9
		c2.6-4.7,3.9-10.1,3.9-16.2c0-6.1-1.3-11.5-3.9-16.2c-2.6-4.7-6.1-8.3-10.5-10.9c-4.4-2.6-9.4-3.9-14.9-3.9
		c-5.5,0-10.4,1.3-14.9,3.9c-4.4,2.6-8,6.2-10.5,10.9C32.3,42.8,31,48.2,31,54.2c0,6.1,1.3,11.5,3.9,16.2c2.6,4.7,6.1,8.3,10.5,10.9
		c4.4,2.6,9.4,3.9,14.9,3.9C65.8,85.2,70.7,84,75.2,81.4z"/>
	<path d="M239.9,0v108.5h-25.3l-47.9-57.8v57.8h-30.1V0H162l47.9,57.8V0H239.9z"/>
	<path d="M284.7,24.3h-33.3V0h97.2v24.3h-33.2v84.2h-30.7V24.3z"/>
	<path d="M427.3,87.4h-45.9l-8.5,21.1h-31.3L389.5,0h30.2l48.1,108.5h-31.9L427.3,87.4z M418.3,64.8l-13.9-34.7l-14,34.7H418.3z"/>
	<path d="M523.9,79.7h-16.7v28.8h-30.7V0h49.6c9.8,0,18.3,1.6,25.6,4.9c7.2,3.3,12.8,7.9,16.7,14c3.9,6,5.9,13.2,5.9,21.3
		c0,7.9-1.8,14.7-5.5,20.5c-3.7,5.8-8.9,10.4-15.7,13.7l23.4,34.1h-32.9L523.9,79.7z M538.5,28.4c-3.2-2.8-8-4.2-14.3-4.2h-17V56h17
		c6.3,0,11.1-1.4,14.3-4.1c3.2-2.7,4.8-6.6,4.8-11.7C543.3,35.1,541.7,31.2,538.5,28.4z"/>
	<path d="M591.2,0h30.7v108.5h-30.7V0z"/>
	<path d="M667.5,103.4c-9.1-4.9-16.3-11.6-21.5-20.1c-5.2-8.6-7.8-18.2-7.8-29c0-10.7,2.6-20.4,7.8-29c5.2-8.6,12.4-15.3,21.5-20.1
		c9.1-4.9,19.5-7.3,30.9-7.3c11.5,0,21.8,2.4,30.9,7.3c9.1,4.9,16.3,11.6,21.5,20.1c5.2,8.6,7.8,18.2,7.8,29c0,10.7-2.6,20.4-7.8,29
		c-5.2,8.6-12.4,15.3-21.5,20.1c-9.1,4.9-19.5,7.3-30.9,7.3C687,110.7,676.6,108.2,667.5,103.4z M713.3,81.4
		c4.4-2.6,8-6.2,10.5-10.9c2.6-4.7,3.9-10.1,3.9-16.2c0-6.1-1.3-11.5-3.9-16.2c-2.6-4.7-6.1-8.3-10.5-10.9
		c-4.4-2.6-9.4-3.9-14.9-3.9c-5.5,0-10.4,1.3-14.9,3.9c-4.4,2.6-8,6.2-10.5,10.9c-2.6,4.7-3.9,10.1-3.9,16.2
		c0,6.1,1.3,11.5,3.9,16.2c2.6,4.7,6.1,8.3,10.5,10.9c4.4,2.6,9.4,3.9,14.9,3.9C703.9,85.2,708.9,84,713.3,81.4z"/>
</g>
<g>
	<path d="M147.3,130.9v6.6h13.3v6.6h-13.3v10.3h-8.5v-30.1h23.6v6.6H147.3z"/>
	<path d="M166.3,124.3h8.5v30.1h-8.5V124.3z"/>
	<path d="M209.6,124.3v30.1h-7l-13.3-16v16h-8.3v-30.1h7l13.3,16v-16H209.6z"/>
	<path d="M215.6,124.3h14.2c3.3,0,6.2,0.6,8.8,1.8c2.6,1.2,4.5,3,5.9,5.2c1.4,2.3,2.1,4.9,2.1,8s-0.7,5.7-2.1,8
		c-1.4,2.3-3.4,4-5.9,5.2c-2.6,1.2-5.5,1.8-8.8,1.8h-14.2V124.3z M229.5,147.6c2.6,0,4.7-0.7,6.2-2.2c1.6-1.5,2.3-3.5,2.3-6.1
		c0-2.6-0.8-4.6-2.3-6.1c-1.6-1.5-3.6-2.2-6.2-2.2h-5.4v16.5H229.5z"/>
	<path d="M279.7,143.6v10.8h-8.5v-10.9l-11.5-19.2h9l7.1,12l7.1-12h8.3L279.7,143.6z"/>
	<path d="M298.7,153c-2.5-1.3-4.5-3.2-6-5.6c-1.4-2.4-2.2-5.1-2.2-8s0.7-5.7,2.2-8c1.4-2.4,3.4-4.2,6-5.6c2.5-1.3,5.4-2,8.6-2
		s6,0.7,8.6,2c2.5,1.3,4.5,3.2,6,5.6c1.4,2.4,2.2,5.1,2.2,8s-0.7,5.7-2.2,8c-1.4,2.4-3.4,4.2-6,5.6c-2.5,1.3-5.4,2-8.6,2
		S301.3,154.3,298.7,153z M311.4,146.9c1.2-0.7,2.2-1.7,2.9-3c0.7-1.3,1.1-2.8,1.1-4.5s-0.4-3.2-1.1-4.5c-0.7-1.3-1.7-2.3-2.9-3
		c-1.2-0.7-2.6-1.1-4.1-1.1c-1.5,0-2.9,0.4-4.1,1.1c-1.2,0.7-2.2,1.7-2.9,3c-0.7,1.3-1.1,2.8-1.1,4.5s0.4,3.2,1.1,4.5
		c0.7,1.3,1.7,2.3,2.9,3c1.2,0.7,2.6,1.1,4.1,1.1C308.8,147.9,310.2,147.6,311.4,146.9z"/>
	<path d="M332,151.3c-2.5-2.4-3.7-5.9-3.7-10.4v-16.7h8.5v16.4c0,4.8,1.9,7.2,5.7,7.2c3.8,0,5.7-2.4,5.7-7.2v-16.4h8.4V141
		c0,4.5-1.2,7.9-3.7,10.4c-2.5,2.4-6,3.7-10.4,3.7S334.4,153.8,332,151.3z"/>
	<path d="M375.5,146.4h-4.6v8h-8.5v-30.1h13.8c2.7,0,5.1,0.5,7.1,1.4c2,0.9,3.6,2.2,4.6,3.9c1.1,1.7,1.6,3.6,1.6,5.9
		c0,2.2-0.5,4.1-1.5,5.7c-1,1.6-2.5,2.9-4.4,3.8l6.5,9.5h-9.1L375.5,146.4z M379.5,132.2c-0.9-0.8-2.2-1.2-4-1.2h-4.7v8.8h4.7
		c1.7,0,3.1-0.4,4-1.1c0.9-0.8,1.3-1.8,1.3-3.2C380.8,134,380.4,132.9,379.5,132.2z"/>
	<path d="M397.6,154.1c-2.3-0.6-4.2-1.4-5.6-2.4l2.8-6.3c1.3,0.9,2.9,1.6,4.7,2.1c1.8,0.5,3.5,0.8,5.2,0.8c3.3,0,4.9-0.8,4.9-2.5
		c0-0.9-0.5-1.5-1.4-1.9c-0.9-0.4-2.4-0.9-4.5-1.3c-2.3-0.5-4.2-1-5.7-1.6s-2.8-1.5-3.9-2.7c-1.1-1.2-1.6-2.9-1.6-5
		c0-1.8,0.5-3.5,1.5-5c1-1.5,2.5-2.6,4.5-3.5c2-0.9,4.4-1.3,7.3-1.3c2,0,3.9,0.2,5.8,0.7c1.9,0.4,3.6,1.1,5.1,2l-2.6,6.3
		c-2.9-1.5-5.6-2.3-8.3-2.3c-1.7,0-2.9,0.3-3.7,0.8c-0.8,0.5-1.2,1.2-1.2,2c0,0.8,0.5,1.4,1.4,1.8c0.9,0.4,2.4,0.8,4.4,1.2
		c2.3,0.5,4.2,1,5.7,1.6s2.8,1.4,3.9,2.7c1.1,1.2,1.7,2.9,1.7,5c0,1.8-0.5,3.4-1.5,4.9c-1,1.5-2.5,2.6-4.5,3.5
		c-2,0.9-4.4,1.3-7.3,1.3C402.3,155,399.9,154.7,397.6,154.1z"/>
	<path d="M446.1,147.8v6.6h-24.2v-30.1h23.6v6.6h-15.2v5.1h13.4v6.4h-13.4v5.5H446.1z"/>
	<path d="M450.8,124.3h8.5v23.3h14.4v6.8h-22.9V124.3z"/>
	<path d="M485.6,130.9v6.6h13.3v6.6h-13.3v10.3h-8.5v-30.1h23.6v6.6H485.6z"/>
	<path d="M537.3,148.5h-12.7l-2.4,5.8h-8.7l13.3-30.1h8.4l13.3,30.1h-8.9L537.3,148.5z M534.9,142.3l-3.9-9.6l-3.9,9.6H534.9z"/>
	<path d="M555.9,131h-9.2v-6.8h27v6.8h-9.2v23.3h-8.5V131z"/>
	<path d="M617.9,124.3v30.1h-8.5v-11.7h-11.6v11.7h-8.5v-30.1h8.5v11.3h11.6v-11.3H617.9z"/>
	<path d="M630.5,153c-2.5-1.3-4.5-3.2-6-5.6c-1.4-2.4-2.2-5.1-2.2-8s0.7-5.7,2.2-8c1.4-2.4,3.4-4.2,6-5.6c2.5-1.3,5.4-2,8.6-2
		c3.2,0,6,0.7,8.6,2c2.5,1.3,4.5,3.2,6,5.6s2.2,5.1,2.2,8s-0.7,5.7-2.2,8s-3.4,4.2-6,5.6c-2.5,1.3-5.4,2-8.6,2
		C635.9,155,633.1,154.3,630.5,153z M643.3,146.9c1.2-0.7,2.2-1.7,2.9-3c0.7-1.3,1.1-2.8,1.1-4.5s-0.4-3.2-1.1-4.5
		c-0.7-1.3-1.7-2.3-2.9-3c-1.2-0.7-2.6-1.1-4.1-1.1c-1.5,0-2.9,0.4-4.1,1.1c-1.2,0.7-2.2,1.7-2.9,3c-0.7,1.3-1.1,2.8-1.1,4.5
		s0.4,3.2,1.1,4.5c0.7,1.3,1.7,2.3,2.9,3c1.2,0.7,2.6,1.1,4.1,1.1C640.6,147.9,642,147.6,643.3,146.9z"/>
	<path d="M687.5,154.4l-0.1-16l-7.7,13h-3.8l-7.7-12.6v15.5h-7.9v-30.1h7l10.6,17.4l10.3-17.4h7l0.1,30.1H687.5z"/>
	<path d="M725.5,147.8v6.6h-24.2v-30.1H725v6.6h-15.2v5.1h13.4v6.4h-13.4v5.5H725.5z"/>
</g>
</svg>
