<?xml version="1.0" encoding="utf-8"?>
<!-- Generator: Adobe Illustrator 19.0.0, SVG Export Plug-In . SVG Version: 6.00 Build 0)  -->
<svg version="1.1" id="Layer_1" xmlns="http://www.w3.org/2000/svg" xmlns:xlink="http://www.w3.org/1999/xlink" x="0px" y="0px"
	 viewBox="0 0 339.7 366" style="enable-background:new 0 0 339.7 366;" xml:space="preserve">
<style type="text/css">
	.st0{fill:url(#XMLID_71_);}
	.st1{fill:url(#XMLID_72_);}
	.st2{fill:#373535;}
</style>
<g id="XMLID_2_">
	<linearGradient id="XMLID_71_" gradientUnits="userSpaceOnUse" x1="-2.495799e-07" y1="130.0728" x2="339.7492" y2="130.0728">
		<stop  offset="0" style="stop-color:#46B5C2"/>
		<stop  offset="1" style="stop-color:#2E79BF"/>
	</linearGradient>
	<path id="XMLID_22_" class="st0" d="M205.9,202.7l1.8-1.8l2.2-2.2c1.8-1.9,3.5-4,5-6.2l10.8-1.7l25.6-4l88.5-13.9l-85.4-13.1
		l-21.1-3.2l-9.1-1.4c-0.3-2.9-0.9-5.7-1.7-8.4c-0.4-1.4-0.9-2.7-1.4-4.1c-5.4-14.4-16.9-25.8-31.2-31.2c-0.6-0.2-1.3-0.5-1.9-0.7
		l-1.7-10.9c2.3,0.6,4.6,1.3,6.8,2.1c16.7,6.4,30,19.6,36.3,36.4c1.2,3.2,2.2,6.5,2.9,9.9l21.4,3.3c-0.9-6.4-2.4-12.5-4.7-18.3
		c-8.6-22.8-26.7-40.9-49.5-49.5c-5.2-2-10.8-3.5-16.5-4.4L170.5,0l-12.1,79c-6.9,0.9-13.6,2.6-19.9,5.1
		c-22.3,8.6-40,26.3-48.6,48.6c-2.3,5.9-4,12.2-4.9,18.7l24.5-3.8c0.7-3.3,1.7-6.5,2.9-9.6c6.3-16.3,19.4-29.4,35.7-35.7
		c2.3-0.9,4.6-1.7,7.1-2.3l-1.7,10.9c-0.7,0.2-1.5,0.5-2.2,0.8c-14.1,5.4-25.2,16.6-30.7,30.7c-0.5,1.2-0.9,2.5-1.3,3.7
		c0,0.2-0.1,0.3-0.1,0.5c-0.7,2.6-1.4,5.2-1.7,8c0,0.2,0,0.3-0.1,0.4l-6.3,1l-2.9,0.4L87,159.6l-2.8,0.4L0,172.9l87.2,13.7l3,0.5
		l25.8,4.1l3.1,0.5l7.6,1.2v-0.2c1.5,2.2,3.2,4.3,5.1,6.2l1.8,1.8l2.3,2.3l12.5,12.5l22.3,22.3l5.6,5.7l9.1,9.1l3.4,3.4l4.1,4.1
		l34.7-34.7l3.5-3.5c7.1-7.5,12.9-16.3,16.8-26l-29.1,4.6c-0.8,1-1.7,2-2.7,3l-2.6,2.6l-24.9,24.9l-2,2l-5.6-5.6l6.9-6.9
		L205.9,202.7z M170.8,217.1l-12.1-12.1l-13.1-13.1l-1.2-1.2c-4.1-4.3-7.2-9.6-8.8-15.6c-0.9-3.1-1.3-6.3-1.3-9.6c0-0.6,0-1.1,0-1.6
		c0.2-4.1,1-8,2.4-11.6c1.3-3.5,3.2-6.7,5.5-9.5c4-5,9.3-9,15.4-11.3c4.1-1.6,8.6-2.5,13.2-2.5c4.6,0,8.9,0.8,12.9,2.4
		c6.5,2.5,12.1,6.8,16.3,12.2c2.1,2.7,3.7,5.8,5,9c1.4,3.7,2.3,7.8,2.3,12c0,0.3,0,0.6,0,1c0,3.3-0.4,6.5-1.3,9.6
		c-1.6,5.9-4.6,11.2-8.7,15.5L170.8,217.1z"/>
	<linearGradient id="XMLID_72_" gradientUnits="userSpaceOnUse" x1="90.3943" y1="280.9095" x2="187.4478" y2="280.9095">
		<stop  offset="0" style="stop-color:#46B5C2"/>
		<stop  offset="1" style="stop-color:#2E79BF"/>
	</linearGradient>
	<path id="XMLID_21_" class="st1" d="M187.4,265.8L172.1,366L157.4,272l-46.9-46.9l-2.9-2.8c-7.2-7.5-13-16.3-17-26
		c-0.1-0.2-0.1-0.3-0.2-0.5l3,0.5l29.5,4.6c0.1,0.2,0.3,0.3,0.4,0.5c0.7,0.8,1.4,1.6,2.2,2.4l2.1,2.1l23,23l2.2,2.2l15.6,15.6
		l15.7,15.7L187.4,265.8L187.4,265.8z"/>
	<path id="XMLID_18_" class="st2" d="M101,99.2c-1.7,1.9-3.4,3.9-4.9,6L79.5,85.7L101,99.2z"/>
	<path id="XMLID_15_" class="st2" d="M262.2,86.4l-17.6,20.7c-1.6-2.2-3.4-4.3-5.1-6.4L262.2,86.4z"/>
	<polygon id="XMLID_6_" class="st2" points="259,269.1 222.8,242.3 232.5,232.6 	"/>
	<polygon id="XMLID_3_" class="st2" points="80.6,270.1 116.9,243.3 107.1,233.6 	"/>
</g>
</svg>
