<?xml version="1.0" encoding="utf-8"?>
<!-- Generator: Adobe Illustrator 19.0.0, SVG Export Plug-In . SVG Version: 6.00 Build 0)  -->
<svg version="1.1" id="Layer_1" xmlns="http://www.w3.org/2000/svg" xmlns:xlink="http://www.w3.org/1999/xlink" x="0px" y="0px"
	 viewBox="-293 385 24 24" style="enable-background:new -293 385 24 24;" xml:space="preserve">
<style type="text/css">
	.st0{fill:#2E79BF;}
</style>
<path class="st0" d="M-281,387c5.5,0,10,4.5,10,10s-4.5,10-10,10s-10-4.5-10-10S-286.5,387-281,387z M-281,385c-6.6,0-12,5.4-12,12
	s5.4,12,12,12s12-5.4,12-12S-274.4,385-281,385z M-274.5,393.8c-0.4,0.2-0.9,0.3-1.4,0.4c0.5-0.3,0.9-0.8,1.1-1.4
	c-0.5,0.3-1,0.5-1.6,0.6c-0.4-0.5-1.1-0.8-1.8-0.8c-1.6,0-2.8,1.5-2.4,3c-2-0.1-3.9-1.1-5.1-2.6c-0.6,1.1-0.3,2.6,0.8,3.3
	c-0.4,0-0.8-0.1-1.1-0.3c0,1.1,0.8,2.2,2,2.4c-0.3,0.1-0.7,0.1-1.1,0c0.3,1,1.2,1.7,2.3,1.7c-1,0.8-2.3,1.2-3.6,1
	c1.1,0.7,2.4,1.1,3.8,1.1c4.6,0,7.2-3.9,7-7.3C-275.2,394.7-274.8,394.3-274.5,393.8z"/>
</svg>
