<?xml version="1.0" encoding="utf-8"?>
<!-- Generator: Adobe Illustrator 19.0.0, SVG Export Plug-In . SVG Version: 6.00 Build 0)  -->
<svg version="1.1" id="Layer_1" xmlns="http://www.w3.org/2000/svg" xmlns:xlink="http://www.w3.org/1999/xlink" x="0px" y="0px"
	 viewBox="-293 385 24 24" style="enable-background:new -293 385 24 24;" xml:space="preserve">
<style type="text/css">
	.st0{fill:#2E79BF;}
</style>
<path class="st0" d="M-276.8,392.1c-2-0.1-6.5-0.1-8.5,0c-2.2,0.1-2.4,1.5-2.4,4.9c0,3.4,0.3,4.8,2.4,4.9c2,0.1,6.5,0.1,8.5,0
	c2.2-0.1,2.4-1.5,2.4-4.9C-274.4,393.6-274.6,392.2-276.8,392.1z M-283,399.2v-4.4l4.8,2.2L-283,399.2z M-281,387
	c5.5,0,10,4.5,10,10s-4.5,10-10,10s-10-4.5-10-10S-286.5,387-281,387z M-281,385c-6.6,0-12,5.4-12,12s5.4,12,12,12s12-5.4,12-12
	S-274.4,385-281,385z"/>
</svg>
